<?xml version="1.0" encoding="utf-8"?>
<!-- Generator: Adobe Illustrator 21.1.0, SVG Export Plug-In . SVG Version: 6.00 Build 0)  -->
<svg version="1.1" id="Layer_1" xmlns="http://www.w3.org/2000/svg" xmlns:xlink="http://www.w3.org/1999/xlink" x="0px" y="0px"
	 viewBox="0 0 285.6 183.5" style="enable-background:new 0 0 285.6 183.5;" xml:space="preserve">
<style type="text/css">
	.st0{fill:#231F20;}
	.st1{fill:#FFFFFF;}
	.st2{font-family:'LithosPro-Black';}
	.st3{font-size:52px;}
</style>
<title>appetizing2</title>
<path class="st0" d="M285.6,91.5c0,2-4.9,2.9-6.1,4.8c-1.1,1.6-2.5,3-4,4.2c-1.7,1.2-3.4,2.3-5.2,3.2c-1.8,1-2.1,4.6-4.2,5.6
	c-1.9,0.8-3.5,2.8-5.7,3.6c-2,0.7-4.4,0.7-6.6,1.4c-2,0.6-4.6,0.1-6.7,0.7c-2.2,0.6-3.8,2.5-6,3.1c-2.2,0.5-4.8-1.1-7-0.6
	s-4.1,1.6-6.3,2s-4.6-0.8-6.8-0.5s-4.1,1.8-6.3,2.2c-2.2,0.4-4.2,1.2-6.4,1.5c-2.2,0.3-4.2,1.4-6.4,1.6c-2.2,0.3-4.3,0.8-6.5,1
	c-2.2,0.2-4.5-0.6-6.7-0.5c-2.2,0.2-4.2,1.9-6.5,2.1c-2.2,0.2-4.6-2-6.8-1.8c-2.2,0.1-4.3,1.7-6.5,1.8c-2.2,0.1-4.5-1.6-6.7-1.5
	c-2.2,0.1-4.3,2.1-6.5,2.1c-2.2,0.1-4.4-2.2-6.7-2.2c-2.2,0-4.4,0.9-6.6,0.9c-2.2,0-4.4-1.1-6.6-1.1c-2.2,0-4.4-0.3-6.6-0.3
	c-2.2-0.1-4.4-0.8-6.6-0.9s-4.6,3.2-6.8,3.1s-4.4-0.3-6.6-0.4s-4.4-0.9-6.6-1.1c-2.2-0.2-4.5,0.1-6.6-0.1c-2.2-0.2-4.2-2.3-6.4-2.5
	c-2.2-0.2-4.7,2.1-6.9,1.9c-2.2-0.2-3.8-4.5-6-4.7c-2.2-0.3-4.9,2.8-7.1,2.5c-2.1-0.3-4.4-0.8-6.5-1.1s-4.2-1.6-6.3-2
	s-4.8,0.9-6.9,0.5c-2.1-0.5-4.5-0.6-6.6-1.1c-2.1-0.5-3.6-3.7-5.6-4.2c-2-0.6-3.6-3.1-5.6-3.8c-2.2-0.7-5.8,2.5-7.8,1.8
	c-2.1-0.8-2.3-5.6-4.1-6.4c-2.1-0.9-5.5,0.7-7.2-0.3c-2-1.1-4.5-1.8-6-3c-1.8-1.3-3.4-3-4.7-4.8c-1.3-1.9,0.2-4.5,0.2-6.5
	c0-2,1.5-3,2.7-4.8c1.1-1.5,2.4-2.4,4.3-3.9c1.5-1.2,0.9-5.5,2.9-6.6c1.8-1,3.6-2.5,5.7-3.5c1.9-0.8,4-1.9,6.1-2.7
	c2-0.7,4.9,0.6,7.1-0.1c2-0.6,4.4-0.3,6.6-0.8s4.3-0.6,6.5-1.1c2.2-0.5,4.4-0.1,6.6-0.5s3.7-3.1,5.9-3.6s4.8,1.9,7,1.5
	c2.2-0.4,4-2,6.2-2.3c2.2-0.3,4.1-2,6.3-2.3c2.2-0.3,4.1-2.5,6.3-2.8c2.2-0.3,4.4-0.4,6.6-0.6c2.2-0.2,4.4-0.4,6.6-0.6
	c2.2-0.2,4.7,3.3,6.9,3.1c2.2-0.2,4.4-0.1,6.6-0.3c2.2-0.1,4.3-1.3,6.5-1.4c2.2-0.1,4.3-2.1,6.5-2.2c2.2-0.1,4.5,2.2,6.7,2.1
	c2.2-0.1,4.3-3.7,6.5-3.8c2.2,0,4.4,3.3,6.6,3.3s4.4-0.5,6.6-0.5c2.2,0,4.4,1.4,6.6,1.4c2.2,0,4.4-1.1,6.6-1
	c2.2,0.1,4.3,1.4,6.5,1.5c2.2,0.1,4.7-3.6,6.8-3.5c2.2,0.1,4.2,3.1,6.4,3.2s4.7-2.2,6.8-2c2.2,0.2,4.4,0.5,6.6,0.7
	c2.2,0.2,4.4,0.4,6.6,0.7c2.2,0.2,4.4,0.9,6.5,1.2c2.2,0.3,4,3.2,6.1,3.5c2.1,0.3,4.5,0,6.6,0.3c2.1,0.3,4.5,0.2,6.6,0.6
	c2.1,0.4,4.5,0.1,6.7,0.5c2.1,0.5,4.2,1.7,6.2,2.2c2.1,0.5,4.7-0.1,6.7,0.5c2.1,0.6,4,2.3,6,2.9c2.2,0.7,3.9,2.3,5.8,3
	c2.1,0.8,3.3,3.2,5.2,4c2.1,0.9,4.7,0.4,6.5,1.4c2,1.1,4.4,1.5,5.9,2.8c1.9,1.5,4,2.6,5,4.2C283.1,87.2,285.6,89.5,285.6,91.5z"/>
<path class="st0" d="M142.5,11.5C64.4,11.5,1,30.4,1,53.7c0,0.2,0,0.5,0,0.7l5.5,0c29.4-2.1,58.3-7.8,87.9-4.9
	c9.8,0.9,19.2,2.8,28.7,3.7h0.3c7,0,14-4.2,21-4.2c46.7,0,94.1-6.7,139.5,4.7l0,0C284,30.4,220.7,11.5,142.5,11.5z"/>
<path class="st0" d="M100.7,131.6c-20,2.9-38.3,0.6-56.5-3.2c-14.1,0.3-28.2,0.5-42.4,0.6c1.3,21,63.7,38,140.6,38
	C220,167,283,149.7,283,128.4c-8.4-1.9-17.1-3.4-25.8-4.3c-18.4,1.7-36.8,3.5-55.1,3.9C168.3,128.7,134.5,126.5,100.7,131.6z"/>
<text transform="matrix(0.6657 0 0 1 22.584 107.5605)" class="st1 st2 st3">appetizing</text>
<path class="st0" d="M4.9,129.5l-0.5,0.1l1.3,4.7l0.5-0.2l-1.9,0.2c2.8,0.5,5.6,1.4,8.4,1.7c3.3,0.4,6.7,0.4,10.1,0.5v-5h-0.5
	c-3.2,0.1-3.2,5.1,0,5h0.5c3.2-0.1,3.2-5,0-5c-4,0.1-8-0.2-12-0.8c-2.5-0.4-5.2-2-7.5-0.7c-2.1,1.1-1.3,5,1.3,4.7l0.5-0.1
	C8.1,134.1,8.2,129.1,4.9,129.5L4.9,129.5z"/>
<path class="st0" d="M2.4,53.4c-0.6,0.9-1,1.8-1.4,2.8c-0.4,1.3,0.4,2.7,1.8,3.1c0.2,0.1,0.5,0.1,0.7,0.1c3.3-0.2,6.6-0.7,9.8-1.4
	c2.7-0.6,2.2-5.3-0.7-4.9l-1.4,0.2l0.7,4.9c7.5-1.1,14.8-3.2,21.7-6.1c3-1.2,0.4-5.6-2.5-4.3c-6.6,2.8-13.5,4.7-20.5,5.7
	c-2.8,0.4-2.1,5.3,0.7,4.9l1.4-0.2L12,53.2c-2.8,0.6-5.6,1-8.4,1.2l2.4,3.2l0.9-1.6C8.6,53.2,4.2,50.7,2.4,53.4L2.4,53.4z"/>
<path class="st0" d="M260,48.7c2.1,0,4.1,0.5,6,1.2c1.3,0.4,2.7-0.4,3.1-1.8c0.4-1.3-0.4-2.7-1.7-3.1c-2.4-0.9-4.8-1.3-7.4-1.4
	C256.8,43.6,256.8,48.6,260,48.7L260,48.7z"/>
<path class="st0" d="M243.7,47.5c5.7,0.3,10.7,3.7,16.4,4.4c6.1,0.8,14.7,1.2,19.8,5.1c2.5,1.9,6.1-1.6,3.5-3.5
	c-5.3-4.1-12.5-5.1-18.9-6c-3.6-0.3-7.2-1.1-10.6-2.2c-3.4-1.3-6.5-2.6-10.2-2.8C240.5,42.3,240.5,47.3,243.7,47.5L243.7,47.5z"/>
<path class="st0" d="M257.9,130.6c3.4,0.2,6.4-0.9,9.7-1.5s9-1.6,12.3-0.7l-1.8-1.8c0,0.7,0.1,1.3,0.1,2l3.8-2.2l-0.9-0.5
	c-2.8-1.5-5.4,2.8-2.5,4.3l0.9,0.5c1.2,0.7,2.7,0.3,3.4-1c0.2-0.4,0.3-0.8,0.3-1.2c0-1.1,0-2.2-0.2-3.3c-0.2-0.9-0.9-1.5-1.8-1.8
	c-7.7-2.1-15.9,2.5-23.4,2C254.7,125.3,254.7,130.3,257.9,130.6L257.9,130.6z"/>
<path class="st0" d="M279.2,130.1c3.2,0,3.2-5,0-5S276,130.1,279.2,130.1z"/>
<path class="st0" d="M52.1,118.4c4.2,0,8.4,0,12.6,0l-2.4-3.2l0.1-0.3l2.2,3.8l0.2-0.2c1.2-0.8,1.5-2.3,0.8-3.5
	c-0.3-0.5-0.8-0.9-1.4-1.1c-2.1-0.7-4.1,0.5-6.1,0c-3.1-0.8-4.4,3.9-1.3,4.8c3.7,1.2,7.1,2.4,11,1.2c3.1-0.9,1.8-5.8-1.3-4.8
	c-2.9,0.9-5.6-0.4-8.3-1.2l-1.3,4.8c2.1,0.6,4.2-0.6,6.1,0l-0.6-4.6c-0.8,0.5-1.5,1.2-2,2c-1.2,1.6,0.4,3.7,2.2,3.8
	c2.4,0.1,3.9-1.2,4.7-3.3c0.6-1.6-0.9-3.1-2.4-3.2c-4.2-0.1-8.4-0.1-12.6,0C48.9,113.4,48.9,118.4,52.1,118.4L52.1,118.4z"/>
</svg>
