<svg id="Layer_1" data-name="Layer 1" xmlns="http://www.w3.org/2000/svg" viewBox="0 0 284.62 155.5"><defs><style>.cls-1{fill:#231f20;}.cls-2{isolation:isolate;font-size:52px;fill:#fff;font-family:LithosPro-Black, Lithos Pro;}</style></defs><title>appetizing-logo</title><path class="cls-1" d="M285.6,91.49c0,2-4.86,2.93-6.13,4.81a17.3,17.3,0,0,1-4,4.18,39.63,39.63,0,0,1-5.25,3.2c-1.76,1-2.07,4.63-4.19,5.58-1.89.83-3.5,2.79-5.66,3.58-2,.72-4.42.74-6.59,1.42-2,.64-4.56.09-6.73.69s-3.78,2.55-6,3.08-4.79-1.1-7-.65-4.09,1.56-6.29,2-4.61-.85-6.81-.47-4.07,1.85-6.28,2.2-4.23,1.19-6.44,1.47-4.23,1.37-6.44,1.63-4.33.81-6.54,1-4.49-.65-6.7-.45-4.24,1.92-6.45,2.09-4.56-2-6.77-1.83-4.3,1.67-6.51,1.78-4.48-1.61-6.69-1.54-4.33,2.06-6.54,2.12-4.44-2.2-6.66-2.2-4.38.92-6.6.92-4.4-1.1-6.59-1.1-4.4-.26-6.58-.32-4.37-.85-6.55-.92-4.57,3.16-6.75,3.06-4.43-.26-6.61-.4-4.38-.9-6.55-1.1-4.46.07-6.63-.12-4.2-2.31-6.36-2.53S85,124.8,82.8,124.56s-3.83-4.46-6-4.73-4.94,2.82-7.07,2.5-4.39-.79-6.51-1.1-4.22-1.57-6.33-2-4.81.93-6.9.48-4.51-.57-6.59-1.1-3.58-3.67-5.63-4.23-3.57-3.12-5.59-3.76c-2.17-.68-5.79,2.53-7.76,1.8-2.14-.79-2.26-5.57-4.15-6.41-2.11-.94-5.47.69-7.22-.3-2-1.1-4.46-1.79-6-3A24.14,24.14,0,0,1,2.35,98c-1.27-1.87.24-4.54.24-6.49s1.46-3,2.68-4.81c1.06-1.55,2.41-2.38,4.27-3.86,1.53-1.21.86-5.49,2.89-6.59,1.76-1,3.6-2.55,5.71-3.48,1.89-.83,4-1.94,6.1-2.73s4.91.56,7.07-.13c2-.64,4.45-.25,6.63-.85s4.29-.6,6.48-1.1,4.41-.05,6.6-.53,3.69-3.14,5.89-3.56,4.81,1.88,7,1.52,4-2,6.23-2.3,4.08-2,6.29-2.32,4.07-2.54,6.28-2.79,4.4-.36,6.61-.58,4.39-.41,6.6-.59,4.71,3.3,6.92,3.13,4.36-.14,6.57-.27,4.3-1.27,6.51-1.37,4.3-2.11,6.51-2.2,4.47,2.2,6.68,2.13,4.33-3.73,6.54-3.77,4.43,3.3,6.64,3.3,4.41-.51,6.6-.48,4.38,1.36,6.56,1.41,4.45-1.1,6.63-1,4.35,1.42,6.52,1.52,4.66-3.6,6.83-3.47,4.21,3.06,6.38,3.23,4.66-2.2,6.83-2,4.43.47,6.59.69,4.44.44,6.59.68,4.37.93,6.52,1.22,4,3.17,6.11,3.49,4.5,0,6.62.33,4.48.24,6.59.64,4.55.08,6.65.53,4.16,1.71,6.23,2.2,4.69-.08,6.74.48,4,2.27,6,2.9c2.17.68,3.87,2.3,5.82,3,2.14.79,3.3,3.17,5.18,4,2.11.94,4.74.41,6.49,1.39,2,1.1,4.37,1.55,5.9,2.77,1.86,1.47,4,2.65,5,4.2C283.12,87.18,285.6,89.53,285.6,91.49Z" transform="translate(-0.98 -11.5)"/><path class="cls-1" d="M142.53,11.5C64.38,11.5,1,30.38,1,53.68v.75l5.54,0c29.37-2.12,58.31-7.84,87.93-4.92,9.82.93,19.21,2.76,28.73,3.73h.3c7,0,14-4.16,21-4.16,46.66,0,94.12-6.71,139.5,4.72h0C284,30.38,220.68,11.5,142.53,11.5Z" transform="translate(-0.98 -11.5)"/><path class="cls-1" d="M100.7,131.59c-20,2.89-38.26.61-56.5-3.19-14.1.27-28.2.52-42.36.59,1.28,21,63.72,38,140.59,38C220,167,283,149.7,283,128.36A219.06,219.06,0,0,0,257.2,124c-18.38,1.67-36.76,3.49-55.14,3.93C168.26,128.7,134.48,126.53,100.7,131.59Z" transform="translate(-0.98 -11.5)"/><text class="cls-2" transform="translate(21.6 96.06) scale(0.67 1)">appetizing</text><path class="cls-1" d="M4.95,129.49l-.52.06,1.26,4.66.46-.25-1.93.25c2.84.48,5.56,1.36,8.45,1.69,3.34.38,6.7.43,10.06.48v-5h-.46c-3.21.13-3.22,5.13,0,5h.46c3.2-.13,3.23-5,0-5a75.84,75.84,0,0,1-12-.78c-2.46-.43-5.17-2-7.53-.72-2.06,1.11-1.26,5,1.26,4.66l.52-.06c3.15-.39,3.19-5.4,0-5Z" transform="translate(-0.98 -11.5)"/><path class="cls-1" d="M2.45,53.39A12.06,12.06,0,0,0,1.07,56.2a2.51,2.51,0,0,0,2.46,3.16A67.09,67.09,0,0,0,13.35,58c2.71-.57,2.15-5.27-.66-4.91l-1.45.19.66,4.91A87.9,87.9,0,0,0,33.59,52c3-1.25.41-5.56-2.52-4.32A83.21,83.21,0,0,1,10.53,53.4c-2.76.4-2.13,5.27.66,4.91l1.45-.19L12,53.21a58,58,0,0,1-8.45,1.15l2.41,3.16.87-1.62c1.77-2.7-2.56-5.21-4.32-2.52Z" transform="translate(-0.98 -11.5)"/><path class="cls-1" d="M260,48.66a17.61,17.61,0,0,1,6,1.2A2.52,2.52,0,0,0,269,48.11,2.56,2.56,0,0,0,267.33,45,21.73,21.73,0,0,0,260,43.62c-3.22-.06-3.22,4.94,0,5Z" transform="translate(-0.98 -11.5)"/><path class="cls-1" d="M243.68,47.54c5.67.34,10.72,3.69,16.4,4.44,6.06.8,14.73,1.19,19.76,5.09,2.51,1.94,6.08-1.57,3.54-3.54-5.29-4.09-12.45-5.09-18.92-6a49,49,0,0,1-10.61-2.21c-3.44-1.28-6.46-2.57-10.17-2.79-3.21-.19-3.2,4.81,0,5Z" transform="translate(-0.98 -11.5)"/><path class="cls-1" d="M257.91,130.55c3.42.21,6.41-.95,9.73-1.5s9-1.63,12.34-.72l-1.75-1.75q.06,1,.07,2l3.76-2.16-.86-.46c-2.84-1.51-5.37,2.8-2.52,4.32l.86.46a2.52,2.52,0,0,0,3.76-2.16,15.39,15.39,0,0,0-.25-3.29,2.5,2.5,0,0,0-1.75-1.75c-7.67-2.13-15.86,2.52-23.4,2-3.21-.2-3.2,4.8,0,5Z" transform="translate(-0.98 -11.5)"/><path class="cls-1" d="M279.25,130.12c3.22,0,3.22-5,0-5S276,130.12,279.25,130.12Z" transform="translate(-0.98 -11.5)"/><path class="cls-1" d="M52.12,118.43H64.75l-2.41-3.16.09-.33,2.16,3.76.2-.23a2.54,2.54,0,0,0-.6-4.57c-2.11-.66-4.12.52-6.12,0-3.12-.83-4.39,3.85-1.33,4.82,3.73,1.18,7.06,2.42,11,1.23,3.07-.94,1.76-5.77-1.33-4.82-2.89.88-5.55-.36-8.3-1.23l-1.33,4.82c2.07.55,4.2-.59,6.12,0l-.6-4.57a8.36,8.36,0,0,0-2,2c-1.17,1.65.43,3.67,2.16,3.76,2.41.13,3.9-1.2,4.73-3.34.6-1.56-.92-3.15-2.41-3.16q-6.31-.08-12.63,0c-3.22,0-3.22,5,0,5Z" transform="translate(-0.98 -11.5)"/></svg>